Coordinates
version=1
nRows=17
nColumns=40
inDegrees=yes

Units are S.I. units (second, meters, Newtons, ...)
If the header above contains a line with 'inDegrees', this indicates whether rotational values are in degrees (yes) or radians (no).

endheader
time	pelvis_tilt	pelvis_list	pelvis_rotation	pelvis_tx	pelvis_ty	pelvis_tz	hip_flexion_r	hip_adduction_r	hip_rotation_r	knee_angle_r	knee_angle_r_beta	ankle_angle_r	subtalar_angle_r	mtp_angle_r	hip_flexion_l	hip_adduction_l	hip_rotation_l	knee_angle_l	knee_angle_l_beta	ankle_angle_l	subtalar_angle_l	mtp_angle_l	lumbar_extension	lumbar_bending	lumbar_rotation	arm_flex_r	arm_add_r	arm_rot_r	elbow_flex_r	pro_sup_r	wrist_flex_r	wrist_dev_r	arm_flex_l	arm_add_l	arm_rot_l	elbow_flex_l	pro_sup_l	wrist_flex_l	wrist_dev_l
      4.15000000	      3.30655294	      2.29981884	      0.80887886	     -0.39709561	      0.87481717	     -0.76034406	     38.31904516	      3.07171974	     -0.39802167	     68.71158681	      1.19924342	     21.09436237	      0.00000000	      0.00000000	     58.86766787	      3.43008969	      4.66383943	     13.71632406	      0.23939502	     -8.15021522	      0.00000000	      0.00000000	    -38.57605351	     -0.26232162	     -0.46012085	     89.93075765	    -11.53986548	     11.24014824	     52.97094184	     86.62811774	      0.00000000	      0.00000000	     89.93923567	     -7.93378529	      8.39687722	     52.98977492	     85.62260348	      0.00000000	      0.00000000
      4.15500000	      3.27099858	      2.32029009	      0.84535272	     -0.39701869	      0.87588269	     -0.76035126	     38.21192758	      3.07349874	     -0.35606591	     68.44607602	      1.19460939	     21.02839473	      0.00000000	      0.00000000	     58.77295708	      3.49194271	      4.69648527	     13.73373255	      0.23969885	     -8.14397114	      0.00000000	      0.00000000	    -38.50537517	     -0.28394426	     -0.51106171	     89.93060954	    -11.56152773	     11.26621552	     52.92541938	     86.62932751	      0.00000000	      0.00000000	     89.93905483	     -7.93655413	      8.44202073	     52.99179027	     85.62931152	      0.00000000	      0.00000000
      4.16000000	      3.22433037	      2.32652470	      0.86225159	     -0.39693085	      0.87678936	     -0.76036662	     38.20638283	      3.08640098	     -0.35301407	     68.39239338	      1.19367245	     21.01907287	      0.00000000	      0.00000000	     58.69722702	      3.52712149	      4.69760094	     13.75038375	      0.23998947	     -8.14132023	      0.00000000	      0.00000000	    -38.41742897	     -0.28628412	     -0.51694391	     89.93000321	    -11.56661399	     11.25615753	     52.94889629	     86.62865643	      0.00000000	      0.00000000	     89.93889459	     -7.93848497	      8.43609869	     53.02547520	     85.62958271	      0.00000000	      0.00000000
      4.16500000	      3.16745029	      2.38441750	      0.92831705	     -0.39684266	      0.87796570	     -0.76046520	     38.05453171	      3.06626891	     -0.23311480	     67.96066742	      1.18613741	     20.93532577	      0.00000000	      0.00000000	     58.62148165	      3.64789535	      4.73564064	     13.78254748	      0.24055083	     -8.14238793	      0.00000000	      0.00000000	    -38.31861294	     -0.33164614	     -0.61445346	     89.93009582	    -11.60799894	     11.29882141	     52.86977772	     86.63319626	      0.00000000	      0.00000000	     89.93885372	     -7.95899854	      8.48247131	     52.99531811	     85.63617557	      0.00000000	      0.00000000
      4.17000000	      3.21896191	      2.33750712	      0.98769694	     -0.39677335	      0.87922603	     -0.76041806	     37.80388072	      3.15635390	     -0.19877155	     67.60207641	      1.17987881	     20.85969329	      0.00000000	      0.00000000	     58.43694936	      3.68185712	      4.82633190	     13.79784004	      0.24081774	     -8.18376872	      0.00000000	      0.00000000	    -38.32775486	     -0.27979337	     -0.65311520	     89.92997368	    -11.60782508	     11.39260843	     52.75008431	     86.64300843	      0.00000000	      0.00000000	     89.93888825	     -7.98518977	      8.56397913	     52.96598893	     85.65098233	      0.00000000	      0.00000000
      4.17500000	      3.16760402	      2.34921259	      1.01499613	     -0.39667260	      0.88012422	     -0.76040060	     37.80917098	      3.16247836	     -0.18853180	     67.54518461	      1.17888587	     20.85109922	      0.00000000	      0.00000000	     58.36665022	      3.73258385	      4.83059746	     13.81417900	      0.24110291	     -8.17672845	      0.00000000	      0.00000000	    -38.23488797	     -0.28528508	     -0.66816073	     89.92993447	    -11.62067913	     11.37381414	     52.77772955	     86.64118622	      0.00000000	      0.00000000	     89.93875256	     -7.98753652	      8.55328989	     52.99881371	     85.65055719	      0.00000000	      0.00000000
      4.18000000	      3.09179627	      2.44929054	      1.11503157	     -0.39658161	      0.88125235	     -0.76054792	     37.67782450	      3.09868862	     -0.03602616	     67.15227410	      1.17202828	     20.74655542	      0.00000000	      0.00000000	     58.31516477	      3.90843859	      4.89717218	     13.84579112	      0.24165464	     -8.18459396	      0.00000000	      0.00000000	    -38.11530776	     -0.35365498	     -0.79634510	     89.92918667	    -11.68486325	     11.37587826	     52.71365152	     86.63990510	      0.00000000	      0.00000000	     89.93864096	     -7.98074753	      8.59723693	     52.97492443	     85.65693924	      0.00000000	      0.00000000
      4.18500000	      3.04884568	      2.48964242	      1.16548101	     -0.39647971	      0.88229993	     -0.76054205	     37.59558035	      3.08911665	      0.05165550	     66.90485996	      1.16771009	     20.68234042	      0.00000000	      0.00000000	     58.22974312	      3.99900757	      4.93533303	     13.86488282	      0.24198786	     -8.17730909	      0.00000000	      0.00000000	    -38.03701454	     -0.39180880	     -0.86363890	     89.92899568	    -11.71668838	     11.38946055	     52.66942200	     86.63981669	      0.00000000	      0.00000000	     89.93847471	     -7.98864619	      8.62511829	     52.97436553	     85.66120176	      0.00000000	      0.00000000
      4.19000000	      3.00772665	      2.51024880	      1.24250094	     -0.39641360	      0.88331548	     -0.76060255	     37.49430724	      3.09937921	      0.13891757	     66.65994580	      1.16343553	     20.59734465	      0.00000000	      0.00000000	     58.15020541	      4.10164806	      4.98968106	     13.88827490	      0.24239612	     -8.17134555	      0.00000000	      0.00000000	    -37.94090057	     -0.38980741	     -0.93186476	     89.92869383	    -11.73412088	     11.43327490	     52.61150936	     86.64900372	      0.00000000	      0.00000000	     89.93847416	     -7.99499344	      8.65536592	     52.96885608	     85.66557709	      0.00000000	      0.00000000
      4.19500000	      2.99143599	      2.56106089	      1.30334987	     -0.39630918	      0.88448597	     -0.76064295	     37.36597063	      3.06599692	      0.21871067	     66.39335949	      1.15878272	     20.50756099	      0.00000000	      0.00000000	     58.02964782	      4.21271773	      5.03720355	     13.90443382	      0.24267815	     -8.16446434	      0.00000000	      0.00000000	    -37.88545768	     -0.42698732	     -1.02020586	     89.92844961	    -11.75073528	     11.45776178	     52.57509045	     86.65475102	      0.00000000	      0.00000000	     89.93834264	     -8.00634477	      8.68820903	     52.95978874	     85.67083812	      0.00000000	      0.00000000
      4.20000000	      2.95309449	      2.59487251	      1.36878191	     -0.39618127	      0.88551555	     -0.76070173	     37.28016422	      3.04985727	      0.28519512	     66.18269818	      1.15510599	     20.41481930	      0.00000000	      0.00000000	     57.93302123	      4.31428693	      5.10000247	     13.90567568	      0.24269983	     -8.16972888	      0.00000000	      0.00000000	    -37.80095163	     -0.44262374	     -1.08590252	     89.92838003	    -11.77977810	     11.47420802	     52.53335383	     86.65746485	      0.00000000	      0.00000000	     89.93830454	     -8.02008544	      8.70276035	     52.95321818	     85.67422859	      0.00000000	      0.00000000
      4.20500000	      2.91154213	      2.64179879	      1.45105214	     -0.39606671	      0.88657003	     -0.76073101	     37.17515770	      3.02168267	      0.36590254	     65.92298072	      1.15057307	     20.31167668	      0.00000000	      0.00000000	     57.84580488	      4.43595149	      5.16153431	     13.91315688	      0.24283040	     -8.16166821	      0.00000000	      0.00000000	    -37.71083903	     -0.47028871	     -1.17201585	     89.92809267	    -11.81332021	     11.48803315	     52.49247597	     86.65846077	      0.00000000	      0.00000000	     89.93801955	     -8.01000869	      8.74701663	     52.94115943	     85.68008246	      0.00000000	      0.00000000
      4.21000000	      2.87429851	      2.69992350	      1.53394674	     -0.39596896	      0.88769908	     -0.76080976	     37.07950941	      2.96705831	      0.42634158	     65.68152429	      1.14635886	     20.23642238	      0.00000000	      0.00000000	     57.74038536	      4.57454597	      5.22127884	     13.91556879	      0.24287249	     -8.16285725	      0.00000000	      0.00000000	    -37.63429069	     -0.50431260	     -1.25794990	     89.92771067	    -11.84091971	     11.51744828	     52.44927320	     86.66621951	      0.00000000	      0.00000000	     89.93801131	     -8.02931793	      8.76539355	     52.94400912	     85.68461943	      0.00000000	      0.00000000
      4.21500000	      2.84894962	      2.77336856	      1.62190228	     -0.39577041	      0.88877176	     -0.76107273	     36.96239402	      2.87642990	      0.48306762	     65.45092374	      1.14233412	     20.16240952	      0.00000000	      0.00000000	     57.62595793	      4.74007548	      5.30111876	     13.92451550	      0.24302864	     -8.16777927	      0.00000000	      0.00000000	    -37.56057062	     -0.54219807	     -1.36512691	     89.92734598	    -11.88474727	     11.54398755	     52.41456092	     86.67290431	      0.00000000	      0.00000000	     89.93779075	     -8.00872020	      8.81183608	     52.92133580	     85.69224155	      0.00000000	      0.00000000
      4.22000000	      2.86005558	      2.81819818	      1.69370508	     -0.39563369	      0.88994196	     -0.76111348	     36.78958680	      2.82103963	      0.49605431	     65.17411960	      1.13750297	     20.07070683	      0.00000000	      0.00000000	     57.45185889	      4.85857153	      5.42531184	     13.87914960	      0.24223686	     -8.17076833	      0.00000000	      0.00000000	    -37.51773479	     -0.56184602	     -1.42663535	     89.92747932	    -11.90589689	     11.59828704	     52.35371219	     86.68592602	      0.00000000	      0.00000000	     89.93755296	     -8.01134323	      8.85784967	     52.89460182	     85.70071831	      0.00000000	      0.00000000
      4.22500000	      2.80859130	      2.83032809	      1.72489035	     -0.39551732	      0.89091040	     -0.76107037	     36.78694902	      2.82262467	      0.50589337	     65.12022372	      1.13656231	     20.05676289	      0.00000000	      0.00000000	     57.37651784	      4.90447677	      5.42460152	     13.88765186	      0.24238525	     -8.16781216	      0.00000000	      0.00000000	    -37.42807287	     -0.57452082	     -1.43809322	     89.92730048	    -11.92303113	     11.57861689	     52.38067405	     86.68453775	      0.00000000	      0.00000000	     89.93734877	     -8.02219094	      8.84222515	     52.92409653	     85.70009039	      0.00000000	      0.00000000
      4.23000000	      2.72172934	      2.89404718	      1.85541188	     -0.39553074	      0.89194526	     -0.76101489	     36.68084178	      2.77771911	      0.60818676	     64.72729133	      1.12970435	     19.93077445	      0.00000000	      0.00000000	     57.33197115	      5.06337737	      5.46427344	     13.86623217	      0.24201141	     -8.18069329	      0.00000000	      0.00000000	    -37.30126747	     -0.62424929	     -1.55680186	     89.92689349	    -12.00127168	     11.56528001	     52.32913153	     86.68390157	      0.00000000	      0.00000000	     89.93724904	     -7.99956039	      8.87493526	     52.91486791	     85.70569903	      0.00000000	      0.00000000
